<svg width="53" height="53" viewBox="0 0 53 53" fill="none" xmlns="http://www.w3.org/2000/svg">
<path d="M32.1213 10.2086C32.1213 4.57057 36.6923 0 42.3308 0C47.9692 0 52.5402 4.57057 52.5402 10.2086C52.5402 15.8467 47.9692 20.4172 42.3308 20.4172C36.6923 20.4172 32.1213 15.8467 32.1213 10.2086Z" fill="#FF8140"/>
<path d="M43.1575 24.9415V32.2877C43.1575 35.5425 43.1552 37.8451 43.0061 39.6441C42.8592 41.4153 42.5807 42.4946 42.1405 43.3408C41.2841 44.9895 39.9398 46.3342 38.2904 47.1905C37.4442 47.6307 36.3648 47.9091 34.5935 48.056C32.7943 48.2052 30.4915 48.2074 27.2368 48.2074H20.4581C17.2031 48.2074 14.9005 48.2052 13.1016 48.056C11.3299 47.9091 10.2509 47.6307 9.40438 47.1905C7.75532 46.3342 6.41074 44.9895 5.55411 43.3408C5.11437 42.4946 4.83593 41.4153 4.68875 39.6441C4.53941 37.8451 4.53753 35.5425 4.53753 32.2877V25.5099C4.53753 22.2551 4.53941 19.9527 4.68875 18.154C4.83593 16.3824 5.11437 15.3035 5.55411 14.457C6.41074 12.8081 7.75532 11.4636 9.40438 10.6071C10.2509 10.1674 11.3299 9.88895 13.1016 9.74183C14.9005 9.59245 17.203 9.59063 20.4581 9.59063H27.8051C27.8707 8.0003 28.1882 6.47496 28.7185 5.05347H20.3572C17.2258 5.05341 14.7348 5.05341 12.7261 5.22021C10.6687 5.39104 8.91484 5.74856 7.31269 6.58074C4.83486 7.86776 2.81458 9.88793 1.52745 12.3656C0.695207 13.9675 0.33765 15.7212 0.166812 17.7785C9.80411e-07 19.787 0 22.2778 0 25.4089V32.3886C0 35.5198 9.80411e-07 38.0107 0.166812 40.0196C0.33765 42.0766 0.695207 43.8302 1.52745 45.4324C2.81458 47.9097 4.83486 49.9299 7.31269 51.2173C8.91484 52.0493 10.6687 52.4066 12.7261 52.5779C14.7348 52.7446 17.2257 52.7446 20.3571 52.7446H27.3376C30.4689 52.7446 32.96 52.7446 34.969 52.5779C37.0262 52.4066 38.7799 52.0493 40.3822 51.2173C42.8597 49.9299 44.8801 47.9097 46.1676 45.4324C46.9997 43.8302 47.357 42.0766 47.5283 40.0196C47.695 38.0107 47.695 35.5198 47.695 32.3892V24.0281C46.2731 24.5585 44.7479 24.8759 43.1575 24.9415Z" fill="#FF8140"/>
<path d="M33.9223 25.1992C33.9223 26.3478 33.6458 27.4246 33.0928 28.4297C32.5603 29.4347 31.7104 30.2449 30.543 30.8602C29.3961 31.4755 27.9419 31.7832 26.1806 31.7832H22.5862V40.0285H18.2853V18.5537H26.1806C27.8395 18.5537 29.2527 18.8409 30.4201 19.4152C31.5875 19.9895 32.4579 20.7791 33.0314 21.7842C33.6253 22.7892 33.9223 23.9275 33.9223 25.1992ZM25.9963 28.3066C27.1841 28.3066 28.0648 28.04 28.6383 27.5067C29.2117 26.9529 29.4985 26.1837 29.4985 25.1992C29.4985 23.1071 28.3311 22.0611 25.9963 22.0611H22.5862V28.3066H25.9963Z" fill="black"/>
</svg>
