<svg width="26" height="26" viewBox="0 0 26 26" fill="none" xmlns="http://www.w3.org/2000/svg">
<path d="M13.0001 14.0833C13.5984 14.0833 14.0834 13.5983 14.0834 13C14.0834 12.4017 13.5984 11.9166 13.0001 11.9166C12.4018 11.9166 11.9167 12.4017 11.9167 13C11.9167 13.5983 12.4018 14.0833 13.0001 14.0833Z" stroke="#252B3B" stroke-width="2" stroke-linecap="round" stroke-linejoin="round"/>
<path d="M18.3344 12.0597C18.1484 11.0046 17.6537 10.0284 16.9129 9.25445C16.1722 8.48052 15.2185 7.94365 14.1726 7.71171C13.1267 7.47978 12.0355 7.56321 11.037 7.95145C10.0385 8.33968 9.17751 9.0153 8.56299 9.89284C7.94846 10.7704 7.60796 11.8105 7.58455 12.8815C7.56113 13.9526 7.85585 15.0066 8.43144 15.9101C9.00702 16.8137 9.83763 17.5263 10.8182 17.9578C11.7988 18.3893 12.8853 18.5203 13.9404 18.3343" stroke="#252B3B" stroke-width="2" stroke-linecap="round" stroke-linejoin="round"/>
<path d="M3.25 13C3.25 14.9284 3.82183 16.8134 4.89317 18.4168C5.96452 20.0202 7.48726 21.2699 9.26884 22.0078C11.0504 22.7458 13.0108 22.9389 14.9021 22.5627C16.7934 22.1865 18.5307 21.2579 19.8943 19.8943C21.2579 18.5307 22.1865 16.7934 22.5627 14.9021C22.9389 13.0108 22.7458 11.0504 22.0078 9.26884C21.2699 7.48726 20.0202 5.96452 18.4168 4.89317C16.8134 3.82183 14.9284 3.25 13 3.25" stroke="#252B3B" stroke-width="2" stroke-linecap="round" stroke-linejoin="round"/>
</svg>
