<svg width="26" height="26" viewBox="0 0 26 26" fill="none" xmlns="http://www.w3.org/2000/svg">
<path d="M10.8333 3.46661C9.13862 3.85947 7.57993 4.69857 6.31889 5.89689C5.05785 7.0952 4.14038 8.60909 3.66164 10.2815C3.1829 11.9539 3.16033 13.724 3.59627 15.4081C4.03221 17.0922 4.91079 18.6289 6.14086 19.859C7.37094 21.0891 8.90773 21.9677 10.5918 22.4036C12.2759 22.8396 14.0459 22.817 15.7184 22.3382C17.3908 21.8595 18.9047 20.942 20.103 19.681C21.3013 18.4199 22.1404 16.8613 22.5333 15.1666C22.5333 14.8793 22.4191 14.6037 22.216 14.4006C22.0128 14.1974 21.7373 14.0833 21.4499 14.0833H14.0833C13.5086 14.0833 12.9575 13.855 12.5512 13.4487C12.1449 13.0423 11.9166 12.4912 11.9166 11.9166V4.33327C11.9031 4.20493 11.8643 4.08053 11.8024 3.96729C11.7405 3.85405 11.6568 3.75423 11.556 3.67361C11.4552 3.593 11.3395 3.53319 11.2154 3.49765C11.0913 3.46212 10.9614 3.45156 10.8333 3.46661Z" stroke="black" stroke-width="2" stroke-linecap="round" stroke-linejoin="round"/>
<path d="M16.25 3.79163C17.6255 4.27597 18.8749 5.0627 19.9061 6.09388C20.9373 7.12506 21.724 8.37443 22.2083 9.74996H17.3333C17.046 9.74996 16.7705 9.63582 16.5673 9.43266C16.3641 9.22949 16.25 8.95394 16.25 8.66663V3.79163Z" stroke="black" stroke-width="2" stroke-linecap="round" stroke-linejoin="round"/>
</svg>
