<svg width="20" height="20" viewBox="0 0 20 20" fill="none" xmlns="http://www.w3.org/2000/svg">
<path d="M7.50016 5.83337H5.00016C4.55814 5.83337 4.13421 6.00897 3.82165 6.32153C3.50909 6.63409 3.3335 7.05801 3.3335 7.50004V15C3.3335 15.4421 3.50909 15.866 3.82165 16.1786C4.13421 16.4911 4.55814 16.6667 5.00016 16.6667H12.5002C12.9422 16.6667 13.3661 16.4911 13.6787 16.1786C13.9912 15.866 14.1668 15.4421 14.1668 15V12.5" stroke="#FF8140" stroke-width="2" stroke-linecap="round" stroke-linejoin="round"/>
<path d="M7.5 12.5H10L17.0833 5.41669C17.4149 5.08517 17.6011 4.63553 17.6011 4.16669C17.6011 3.69785 17.4149 3.24821 17.0833 2.91669C16.7518 2.58517 16.3022 2.39893 15.8333 2.39893C15.3645 2.39893 14.9149 2.58517 14.5833 2.91669L7.5 10V12.5Z" stroke="#FF8140" stroke-width="2" stroke-linecap="round" stroke-linejoin="round"/>
<path d="M13.3335 4.16663L15.8335 6.66663" stroke="#FF8140" stroke-width="2" stroke-linecap="round" stroke-linejoin="round"/>
</svg>
