<svg width="18" height="18" viewBox="0 0 18 18" fill="none" xmlns="http://www.w3.org/2000/svg">
<path d="M14.25 6.201C14.478 6.33265 14.6674 6.522 14.799 6.75002C14.9307 6.97804 15 7.2367 15 7.5V13.5C15 13.8978 14.842 14.2794 14.5607 14.5607C14.2794 14.842 13.8978 15 13.5 15H7.5C7.10218 15 6.72064 14.842 6.43934 14.5607C6.15804 14.2794 6 13.8978 6 13.5V7.5C6 7.10218 6.15804 6.72064 6.43934 6.43934C6.72064 6.15804 7.10218 6 7.5 6H9.75" stroke="black" stroke-linecap="round" stroke-linejoin="round"/>
<path d="M3.75225 11.8005C3.52359 11.669 3.33364 11.4795 3.20157 11.2512C3.0695 11.0229 2.99997 10.7638 3 10.5V4.5C3 4.10218 3.15804 3.72064 3.43934 3.43934C3.72064 3.15804 4.10218 3 4.5 3H10.5C10.8978 3 11.2794 3.15804 11.5607 3.43934C11.842 3.72064 12 4.10218 12 4.5V10.5C12 10.8978 11.842 11.2794 11.5607 11.5607C11.2794 11.842 10.8978 12 10.5 12H8.25" stroke="black" stroke-linecap="round" stroke-linejoin="round"/>
</svg>
