<svg width="26" height="26" viewBox="0 0 26 26" fill="none" xmlns="http://www.w3.org/2000/svg">
<path d="M14.0833 3.25C14.3706 3.25 14.6461 3.36414 14.8493 3.5673C15.0525 3.77047 15.1666 4.04602 15.1666 4.33333V9.24625L19.4219 6.79033C19.6707 6.64668 19.9664 6.60775 20.244 6.68211C20.5215 6.75647 20.7581 6.93802 20.9018 7.18683L21.9851 9.06317C22.1288 9.31199 22.1677 9.60768 22.0933 9.8852C22.019 10.1627 21.8374 10.3993 21.5886 10.543L17.3343 13L21.5886 15.4581C21.8374 15.6017 22.019 15.8384 22.0933 16.1159C22.1677 16.3934 22.1288 16.6891 21.9851 16.9379L20.9018 18.8143C20.7581 19.0631 20.5215 19.2446 20.244 19.319C19.9664 19.3933 19.6707 19.3544 19.4219 19.2108L15.1666 16.7527V21.6667C15.1666 21.954 15.0525 22.2295 14.8493 22.4327C14.6461 22.6359 14.3706 22.75 14.0833 22.75H11.9166C11.6293 22.75 11.3537 22.6359 11.1506 22.4327C10.9474 22.2295 10.8333 21.954 10.8333 21.6667V16.7527L6.57793 19.2097C6.32911 19.3533 6.03342 19.3922 5.7559 19.3179C5.47838 19.2435 5.24176 19.062 5.0981 18.8132L4.01477 16.9368C3.87111 16.688 3.83218 16.3923 3.90654 16.1148C3.9809 15.8373 4.16245 15.6007 4.41127 15.457L8.66552 13L4.41127 10.543C4.16245 10.3993 3.9809 10.1627 3.90654 9.8852C3.83218 9.60768 3.87111 9.31199 4.01477 9.06317L5.0981 7.18683C5.24176 6.93802 5.47838 6.75647 5.7559 6.68211C6.03342 6.60775 6.32911 6.64668 6.57793 6.79033L10.8333 9.24625V4.33333C10.8333 4.04602 10.9474 3.77047 11.1506 3.5673C11.3537 3.36414 11.6293 3.25 11.9166 3.25H14.0833Z" stroke="#252B3B" stroke-width="2" stroke-linecap="round" stroke-linejoin="round"/>
</svg>
