<svg width="32" height="32" viewBox="0 0 32 32" fill="none" xmlns="http://www.w3.org/2000/svg">
<path d="M5.45334 10.7733C5.38668 11.1733 5.33334 11.5733 5.33334 11.9999C5.33334 11.5866 5.38668 11.1733 5.45334 10.7733ZM5.33334 19.9999C5.33334 20.4266 5.38668 20.8266 5.45334 21.2266C5.38668 20.8266 5.33334 20.4133 5.33334 19.9999ZM10.7867 26.5466C11.1733 26.6133 11.5867 26.6666 12 26.6666C11.5867 26.6666 11.1867 26.6133 10.7867 26.5466ZM10.7867 5.45325C11.1867 5.38659 11.5867 5.33325 12 5.33325C11.5867 5.33325 11.1733 5.38659 10.7867 5.45325ZM21.2267 5.45325C20.8267 5.38659 20.4267 5.33325 20 5.33325C20.4133 5.33325 20.8267 5.38659 21.2267 5.45325ZM26.5467 10.7733C26.6133 11.1733 26.6667 11.5866 26.6667 11.9999C26.6667 11.5733 26.6133 11.1733 26.5467 10.7733Z" fill="#FF8140"/>
<path d="M29.3333 11.0667C29.3333 11.6267 28.8933 12.0667 28.3333 12.0667H26.6667V14.6486C26.6667 15.0347 26.2476 15.2751 25.9143 15.0802L25.8 15.0134C25.2267 14.6801 24.56 14.5734 23.92 14.7467C23.9064 14.75 23.8928 14.7534 23.8793 14.7569C23.4876 14.8579 23.0133 14.6043 23.0133 14.1998V12.9867C23.0133 10.7867 21.2133 8.98675 19.0133 8.98675H12.9867C10.7867 8.98675 8.98666 10.7867 8.98666 12.9867V19.0134C8.98666 21.2134 10.7867 23.0134 12.9867 23.0134H13.5867C13.7413 23.0134 13.8667 23.1388 13.8667 23.2934C13.8667 24.5781 14.7976 25.6583 16.0233 25.9065C16.2538 25.9531 16.4098 26.2288 16.3333 26.4512C16.2896 26.5784 16.1736 26.6667 16.0391 26.6667H12.08V28.3334C12.08 28.8801 11.6267 29.3334 11.08 29.3334C10.52 29.3334 10.08 28.8801 10.08 28.3334V26.3734C7.94666 25.7201 6.27999 24.0534 5.63999 21.9334H3.66666C3.11999 21.9334 2.66666 21.4801 2.66666 20.9334C2.66666 20.3734 3.11999 19.9334 3.66666 19.9334H5.33332V17.0001H3.66666C3.11999 17.0001 2.66666 16.5467 2.66666 16.0001C2.66666 15.4401 3.11999 15.0001 3.66666 15.0001H5.33332V12.0667H3.66666C3.11999 12.0667 2.66666 11.6267 2.66666 11.0667C2.66666 10.5201 3.11999 10.0667 3.66666 10.0667H5.63999C6.27999 7.94675 7.94666 6.28008 10.08 5.62675V3.66675C10.08 3.12008 10.52 2.66675 11.08 2.66675C11.6267 2.66675 12.08 3.12008 12.08 3.66675V5.33341H15V3.66675C15 3.12008 15.4533 2.66675 16 2.66675C16.5467 2.66675 17 3.12008 17 3.66675V5.33341H19.9333V3.66675C19.9333 3.12008 20.3867 2.66675 20.9333 2.66675C21.48 2.66675 21.9333 3.12008 21.9333 3.66675V5.64008C24.0533 6.28008 25.72 7.94675 26.36 10.0667H28.3333C28.8933 10.0667 29.3333 10.5201 29.3333 11.0667Z" fill="#FF8140"/>
<path d="M27.9867 20.7067C27.08 20.7067 26.56 20.2534 26.56 19.5867C26.56 19.32 26.64 19.0134 26.8267 18.6934C27.2 18.0534 26.9733 17.2267 26.3333 16.8667L25.12 16.16C24.56 15.8267 23.84 16.0267 23.5067 16.5867L23.4267 16.72C22.7867 17.8267 21.7467 17.8267 21.1067 16.72L21.0267 16.5867C20.7067 16.0267 19.9733 15.8267 19.4267 16.16L18.2 16.8667C17.7733 17.1067 17.52 17.56 17.52 18.0267C17.52 18.2534 17.5867 18.48 17.7067 18.6934C17.8933 19.0134 17.9867 19.32 17.9867 19.5867C17.9867 20.2534 17.4533 20.7067 16.5467 20.7067C15.8133 20.7067 15.2 21.3067 15.2 22.04V23.2934C15.2 24.0267 15.8133 24.6267 16.5467 24.6267C17.4533 24.6267 17.9867 25.08 17.9867 25.7467C17.9867 26.0134 17.8933 26.32 17.7067 26.64C17.3333 27.28 17.56 28.1067 18.2 28.4667L19.4267 29.1734C19.9733 29.5067 20.7067 29.3067 21.0267 28.7467L21.1067 28.6134C21.7467 27.5067 22.7867 27.5067 23.4267 28.6134L23.5067 28.7467C23.84 29.3067 24.56 29.5067 25.12 29.1734L26.3333 28.4667C26.76 28.2267 27.0133 27.7734 27.0133 27.3067C27.0133 27.08 26.9467 26.8534 26.8267 26.64C26.64 26.32 26.56 26.0134 26.56 25.7467C26.56 25.08 27.08 24.6267 27.9867 24.6267C28.7333 24.6267 29.3333 24.0267 29.3333 23.2934V22.04C29.3333 21.3067 28.7333 20.7067 27.9867 20.7067ZM22.2667 24.96C21 24.96 19.9733 23.9334 19.9733 22.6667C19.9733 21.4 21 20.3734 22.2667 20.3734C23.5333 20.3734 24.56 21.4 24.56 22.6667C24.56 23.9334 23.5333 24.96 22.2667 24.96Z" fill="#FF8140"/>
<path d="M21.6667 13.3599V14.1381C21.6667 14.578 21.0813 14.856 20.6544 14.7501C20.6496 14.7489 20.6448 14.7477 20.64 14.7466C19.9733 14.5733 19.3067 14.6666 18.76 14.9999L17.5467 15.7066C16.7067 16.1733 16.1867 17.0666 16.1867 18.0266C16.1867 18.2021 16.2027 18.3795 16.2369 18.5559C16.3109 18.9364 16.0507 19.3907 15.6839 19.5158C14.8803 19.7898 14.2467 20.4352 13.9899 21.2449C13.9148 21.4818 13.7089 21.6666 13.4603 21.6666H13.36C11.68 21.6666 10.3333 20.3199 10.3333 18.6399V13.3599C10.3333 11.6799 11.68 10.3333 13.36 10.3333H18.64C20.32 10.3333 21.6667 11.6799 21.6667 13.3599Z" fill="#FF8140"/>
</svg>
