<svg width="18" height="18" viewBox="0 0 18 18" fill="none" xmlns="http://www.w3.org/2000/svg">
<path d="M6.75 8.25C8.40685 8.25 9.75 6.90685 9.75 5.25C9.75 3.59315 8.40685 2.25 6.75 2.25C5.09315 2.25 3.75 3.59315 3.75 5.25C3.75 6.90685 5.09315 8.25 6.75 8.25Z" stroke="black" stroke-linecap="round" stroke-linejoin="round"/>
<path d="M2.25 15.75V14.25C2.25 13.4544 2.56607 12.6913 3.12868 12.1287C3.69129 11.5661 4.45435 11.25 5.25 11.25H8.25C9.04565 11.25 9.80871 11.5661 10.3713 12.1287C10.9339 12.6913 11.25 13.4544 11.25 14.25V15.75" stroke="black" stroke-linecap="round" stroke-linejoin="round"/>
<path d="M12 8.25L13.5 9.75L16.5 6.75" stroke="black" stroke-linecap="round" stroke-linejoin="round"/>
</svg>
